<svg width="375" height="369" viewBox="0 0 375 369" fill="none" xmlns="http://www.w3.org/2000/svg">
<path d="M330.922 193.46C332.496 170.176 332.742 146.985 333.709 123.734C334.436 106.411 336.702 89.1532 341.463 71.8329C345.133 58.515 349.848 45.2764 354.859 32.0952C356.009 29.0871 352.098 26.023 348.196 26.0275C343.46 26.0341 340.344 28.3614 339.125 31.5835C331.12 52.5941 323.853 73.802 320.512 95.1558C317.705 113.091 317.706 130.951 317.22 148.794C316.819 163.496 316.004 178.227 315.175 192.95C314.845 198.72 317.132 198.102 321.891 197.281C327.843 196.244 330.698 196.702 330.922 193.46Z" fill="#27B16B" stroke="#27B16B" stroke-miterlimit="10"/>
<path d="M331.27 166.043C339.1 166.194 347.135 166.321 354.282 164.383C361.429 162.445 367.549 157.914 367.574 152.35C367.583 151.45 367.403 150.515 366.7 149.732C365.809 148.759 364.206 148.221 362.647 147.947C354.848 146.555 347.698 150.299 342.068 154.005C337.805 156.811 333.69 159.727 329.722 162.745" fill="#27B16B"/>
<path d="M330.803 168.446C343.058 168.68 359.649 168.848 367.744 159.417C371.171 155.417 372.714 149.081 366.907 146.551C360.89 143.93 352.811 145.519 346.802 148.428C339.804 151.829 333.659 156.527 327.787 160.978C326.509 161.941 326.065 163.366 327.171 164.381C328.139 165.264 330.381 165.484 331.657 164.512C336.089 161.147 340.673 157.826 345.515 154.809C349.789 152.146 354.951 149.647 360.435 150.135C362.541 150.32 364.383 150.808 364.414 152.58C364.434 153.976 363.818 155.468 362.821 156.703C360.57 159.526 356.516 161.466 352.48 162.401C345.64 163.979 338.599 163.785 331.75 163.647C327.662 163.557 326.704 168.367 330.803 168.446Z" fill="#27B16B"/>
<path d="M332.697 100.991C339.175 100.939 348.991 99.9913 354.972 97.9459C360.953 95.9004 366.202 91.388 366.429 86.0217C366.469 85.1558 366.361 84.2566 365.797 83.5286C365.085 82.6127 363.779 82.1324 362.503 81.9079C356.088 80.7616 350.028 84.5482 345.221 88.2543C341.584 91.063 338.068 93.9679 334.674 96.9782" fill="#27B16B"/>
<path d="M332.23 103.395C338.159 103.337 344.276 102.833 350.152 101.654C355.862 100.503 361.055 98.5095 364.97 94.931C368.668 91.5425 371.609 85.5368 368.361 81.9003C364.392 77.446 355.241 79.4239 349.9 82.1847C346.627 83.8718 343.863 86.035 341.138 88.192C338.068 90.6373 335.071 93.1285 332.177 95.6897C331.003 96.7227 331.441 98.3593 332.724 99.0172C334.178 99.7628 336.037 99.3219 337.223 98.2774C341.167 94.8002 345.21 91.2874 349.688 88.1955C352.735 86.0918 358.355 82.7251 362.421 84.5087C363.899 85.1634 363.252 87.2587 362.835 88.3794C362.262 89.8928 361.169 91.2601 359.804 92.4884C357.097 94.9128 353.273 96.1883 349.408 96.9688C344.075 98.0387 338.586 98.5457 333.204 98.6004C331.485 98.6225 329.833 99.5313 329.56 100.889C329.291 102.111 330.498 103.419 332.23 103.395Z" fill="#27B16B"/>
<path d="M332.294 133.543C338.772 133.492 345.43 133.42 351.424 131.372C357.417 129.325 362.654 124.815 362.881 119.448C362.921 118.582 362.812 117.683 362.249 116.955C361.537 116.039 360.231 115.559 358.954 115.335C352.54 114.188 346.48 117.975 341.672 121.681C338.036 124.49 334.52 127.394 331.125 130.405" fill="#27B16B"/>
<path d="M331.815 135.949C338.581 135.898 345.518 135.78 352.079 133.688C357.064 132.096 361.326 129.126 363.865 125.513C366.499 121.769 367.692 115.848 362.392 113.698C356.714 111.397 349.814 113.488 344.697 116.501C341.781 118.216 339.236 120.276 336.709 122.294C333.942 124.516 331.235 126.786 328.602 129.111C327.428 130.144 327.866 131.781 329.149 132.439C330.603 133.184 332.462 132.743 333.648 131.699C337.215 128.544 340.905 125.427 344.839 122.521C348.053 120.159 352.293 117.289 356.892 117.556C358.737 117.668 359.754 118.138 359.721 119.601C359.683 120.959 359.125 122.325 358.313 123.578C356.71 126.053 353.678 128.019 350.41 129.174C344.834 131.143 338.561 131.094 332.773 131.138C328.666 131.166 327.708 135.977 331.815 135.949Z" fill="#27B16B"/>
<path d="M340.858 69.1907C347.337 69.139 356.52 68.5462 362.5 66.5007C368.481 64.4552 373.73 59.9428 373.957 54.5765C373.998 53.7106 373.889 52.8114 373.325 52.0834C372.614 51.1675 371.308 50.6872 370.031 50.4627C363.616 49.3164 357.556 53.103 352.749 56.809C349.113 59.6178 345.596 62.5227 342.202 65.533" fill="#27B16B"/>
<path d="M340.38 71.596C351.51 71.4939 365.368 70.6823 373.047 62.932C376.439 59.507 379.263 53.3467 375.467 50.0225C370.906 46.0227 362.284 48.1164 356.931 50.966C353.692 52.6959 350.935 54.9061 348.211 57.0725C345.293 59.406 342.435 61.7875 339.678 64.2297C338.503 65.2627 338.942 66.8993 340.225 67.5572C341.679 68.3028 343.538 67.8619 344.724 66.8174C348.542 63.4477 352.463 60.0708 356.766 57.0269C360.053 54.7101 365.183 51.5399 369.669 52.9453C371.361 53.4684 370.801 55.385 370.444 56.5444C370.012 57.9669 369.07 59.2997 367.867 60.4821C365.272 63.0328 361.549 64.5235 357.596 65.3281C352.24 66.4116 346.721 66.7399 341.312 66.7894C339.592 66.8021 337.941 67.7203 337.669 69.0781C337.454 70.3105 338.659 71.6087 340.38 71.596Z" fill="#27B16B"/>
<path d="M351.328 38.7964C355.669 38.7679 362.407 38.7026 366.424 37.3372C370.44 35.9624 373.951 32.9427 374.103 29.3456C374.126 28.7722 374.051 28.157 373.685 27.6766C373.205 27.0604 372.33 26.7409 371.47 26.5927C367.18 25.8212 363.108 28.3637 359.887 30.8434C357.455 32.7205 355.088 34.6738 352.821 36.6876" fill="#27B16B"/>
<path d="M350.849 41.2019C354.955 41.1734 359.153 41.1397 363.276 40.5001C367.4 39.8606 371.112 38.3041 373.906 35.7691C376.733 33.1995 378.717 28.7511 376.221 26.0337C373.213 22.7439 366.521 24.0375 362.454 26.135C360.276 27.2559 358.446 28.667 356.633 30.1043C354.462 31.8226 352.351 33.5889 350.298 35.3938C349.124 36.4269 349.562 38.0635 350.845 38.7214C352.299 39.467 354.158 39.0261 355.344 37.9816C357.919 35.7045 360.582 33.4034 363.512 31.377C364.802 30.4891 366.035 29.7359 367.579 29.2021C368.519 28.8835 369.956 28.734 370.755 28.9888C371.016 29.0713 370.99 29.2301 370.896 29.0525C370.822 28.9199 370.93 29.6551 370.935 29.5288C370.938 29.5476 370.866 29.9841 370.827 30.145C370.808 30.2641 370.605 30.9346 370.706 30.6766C370.541 31.0996 370.115 31.8454 369.943 32.0668C369.751 32.33 369.104 32.9965 368.657 33.3788C368.108 33.8457 366.893 34.557 365.962 34.9226C365.618 35.0563 365.271 35.1713 364.926 35.2956C364.384 35.4909 365.131 35.2715 364.54 35.4074C363.747 35.586 362.962 35.7344 362.159 35.8472C358.704 36.3478 355.416 36.3575 351.805 36.3818C350.084 36.3944 348.434 37.3126 348.161 38.6704C347.91 39.9185 349.115 41.2167 350.849 41.2019Z" fill="#27B16B"/>
<path d="M318.169 163.052C311.848 161.919 303.43 160.175 298.119 157.168C292.808 154.16 288.871 148.87 290.078 143.594C290.277 142.74 290.618 141.874 291.352 141.26C292.281 140.48 293.69 140.239 295.006 140.225C301.577 140.178 306.504 144.899 310.221 149.327C313.03 152.679 315.698 156.121 318.231 159.624" fill="#27B16B"/>
<path d="M319.436 160.758C310.276 159.108 299.311 157.117 294.816 150.422C293.747 148.841 293.015 147.088 293.035 145.222C293.04 144.623 293.023 143.641 293.451 143.068C293.848 142.549 294.405 142.603 295.168 142.641C299.544 142.819 302.72 145.705 305.07 148.089C308.955 152.026 312.134 156.437 315.259 160.76C316.053 161.855 317.736 162.408 319.444 161.761C320.944 161.196 321.987 159.605 321.192 158.5C317.861 153.883 314.438 149.175 310.312 144.959C306.984 141.548 302.436 138.183 296.337 137.844C292.624 137.644 288.915 138.9 287.496 141.779C286.411 143.994 286.444 146.576 287.087 148.739C288.473 153.435 292.371 157.457 297.639 159.969C303.377 162.714 310.215 164.138 316.914 165.343C318.554 165.634 320.396 165.089 321.121 163.783C321.753 162.626 321.09 161.056 319.436 160.758Z" fill="#27B16B"/>
<path d="M324.79 98.8641C318.718 97.0243 312.477 95.1061 307.685 91.521C302.892 87.9358 299.829 82.2417 301.832 77.1238C302.153 76.2987 302.632 75.4767 303.459 74.9544C304.499 74.2911 305.933 74.2001 307.235 74.3431C313.745 75.0393 317.884 80.2862 320.87 85.105C323.128 88.7593 325.239 92.4669 327.191 96.2393" fill="#27B16B"/>
<path d="M326.057 96.5706C317.224 93.8913 307.129 90.5217 304.803 82.8045C304.311 81.1669 304.135 79.3036 304.859 77.5917C305.072 77.0642 305.142 76.8501 305.688 76.683C306.423 76.4657 307.86 76.9533 308.466 77.1433C312.121 78.3379 314.505 81.2475 316.307 83.7895C319.369 88.1227 321.841 92.7556 324.227 97.3447C325.676 100.128 331.596 97.8705 330.147 95.0872C327.649 90.2945 325.096 85.4046 321.788 80.9284C319.151 77.3556 315.675 73.6794 310.26 72.3398C307.091 71.5578 303.104 71.6051 300.594 73.8811C298.482 75.802 298.018 78.5333 298.027 80.8101C298.043 85.4318 300.904 89.8944 304.967 93.0107C310.058 96.904 316.774 99.0916 323.519 101.139C327.203 102.271 329.724 97.6764 326.057 96.5706Z" fill="#27B16B"/>
<path d="M320.132 131.817C314.061 129.977 307.82 128.059 303.027 124.473C298.235 120.888 295.171 115.194 297.175 110.076C297.496 109.251 297.974 108.429 298.802 107.907C299.841 107.244 301.275 107.153 302.578 107.296C309.088 107.992 313.227 113.239 316.212 118.057C318.471 121.712 320.581 125.419 322.533 129.192" fill="#27B16B"/>
<path d="M321.4 129.523C312.567 126.844 302.471 123.474 300.145 115.757C299.654 114.119 299.478 112.256 300.201 110.544C300.415 110.017 300.484 109.803 301.031 109.635C301.765 109.418 303.203 109.906 303.808 110.096C307.464 111.29 309.848 114.2 311.649 116.742C314.711 121.075 317.183 125.708 319.569 130.297C321.019 133.08 326.939 130.823 325.489 128.04C322.991 123.247 320.438 118.357 317.131 113.881C314.494 110.308 311.018 106.632 305.603 105.292C302.433 104.51 298.447 104.557 295.937 106.834C293.825 108.754 293.36 111.486 293.369 113.763C293.385 118.384 296.247 122.847 300.309 125.963C305.4 129.856 312.116 132.044 318.862 134.092C322.559 135.221 325.067 130.629 321.4 129.523Z" fill="#27B16B"/>
<path d="M331.15 66.1048C325.078 64.2649 318.837 62.3468 314.045 58.7616C309.252 55.1764 306.189 49.4823 308.192 44.3644C308.513 43.5393 308.992 42.7173 309.819 42.195C310.859 41.5317 312.293 41.4407 313.595 41.5837C320.106 42.2799 324.244 47.5268 327.23 52.3456C329.488 55.9999 331.599 59.7075 333.551 63.4799" fill="#27B16B"/>
<path d="M332.417 63.8112C323.584 61.1319 313.489 57.7623 311.162 50.0451C310.671 48.4074 310.495 46.5442 311.219 44.8323C311.432 44.3048 311.501 44.0907 312.048 43.9236C312.783 43.7063 314.22 44.1939 314.826 44.3839C318.481 45.5785 320.865 48.4881 322.667 51.0301C325.729 55.3633 328.2 59.9962 330.587 64.5853C332.036 67.3686 337.956 65.1111 336.506 62.3278C334.009 57.5351 331.455 52.6452 328.148 48.169C325.511 44.5962 322.035 40.92 316.62 39.5804C313.45 38.7984 309.464 38.8457 306.954 41.1217C304.842 43.0426 304.378 45.7739 304.387 48.0507C304.403 52.6724 307.264 57.135 311.327 60.2513C316.418 64.1446 323.134 66.3322 329.879 68.3798C333.576 69.5096 336.084 64.917 332.417 63.8112Z" fill="#27B16B"/>
<path d="M341.19 33.1075C337.124 31.8743 332.943 30.5827 329.73 28.186C326.515 25.7798 324.465 21.9657 325.807 18.5398C326.018 17.9936 326.344 17.4379 326.9 17.0859C327.597 16.643 328.553 16.5823 329.429 16.67C333.787 17.1407 336.57 20.6509 338.564 23.8853C340.075 26.3302 341.49 28.8201 342.806 31.3454" fill="#27B16B"/>
<path d="M342.457 30.8136C339.353 29.876 336.286 28.9226 333.637 27.4178C331.304 26.0926 329.416 24.1344 328.828 22.1458C328.492 20.9751 328.397 20.1604 328.861 18.9353C328.779 19.1515 329.077 18.7358 328.984 18.7316C328.957 18.7264 328.908 18.8214 328.868 18.8183C328.856 18.8203 328.291 19.0387 328.28 19.0502C328.248 19.094 327.888 18.8925 328.369 19.0356C328.507 19.0805 328.777 19.0554 328.935 19.0679C328.869 19.0595 328.559 19.0042 328.897 19.0742C329.1 19.118 329.291 19.1639 329.481 19.2099C329.535 19.2203 330.056 19.3759 329.836 19.3059C330.058 19.3853 330.897 19.8072 331.291 20.061C331.654 20.2813 331.331 20.0641 331.647 20.321C331.904 20.5298 332.161 20.7481 332.407 20.9685C333.436 21.9095 333.966 22.5946 334.668 23.6087C336.636 26.4515 338.253 29.4583 339.818 32.464C340.427 33.6285 342.43 34.0618 344.003 33.4653C345.649 32.8375 346.361 31.3784 345.751 30.2045C344.09 27.0117 342.381 23.7595 340.194 20.7788C338.292 18.1857 335.799 15.5643 331.879 14.587C329.566 14.0117 326.7 14.0485 324.681 15.5004C322.85 16.8249 322.258 18.8626 322.206 20.6089C322.095 24.064 323.998 27.381 327.045 29.7182C330.586 32.4376 335.224 33.9726 339.908 35.3937C341.448 35.8646 343.462 35.0216 344.115 33.833C344.856 32.5431 344.009 31.2825 342.457 30.8136Z" fill="#27B16B"/>
<path d="M350.11 30.3662C354.815 20.875 357.811 18.9342 360.39 14.938C362.97 10.9418 363.654 6.68773 360.699 5.06908C360.226 4.80905 359.633 4.61693 358.858 4.74441C357.878 4.89593 356.791 5.50909 355.845 6.18596C351.15 9.54524 349.532 14.0688 348.664 17.8414C347.999 20.7022 347.472 23.5306 347.08 26.3078" fill="#27B16B"/>
<path d="M353.038 31.101C354.715 27.7263 356.925 23.9453 359.106 21.1731C361.039 18.7217 363.178 16.3329 364.449 13.6621C366.244 9.89159 367.065 4.08967 361.336 2.51197C355.565 0.91234 350.022 7.3653 348.077 10.7745C345.299 15.6334 344.648 21.1178 343.914 26.1813C343.471 29.276 349.803 29.5283 350.246 26.4242C350.797 22.636 351.324 18.6974 352.681 14.9603C353.257 13.3883 354.073 11.7579 355.263 10.3457C355.854 9.65008 356.509 8.9534 357.271 8.34548C357.629 8.0645 358.013 7.77933 358.417 7.53907C358.595 7.43253 359.629 7.05018 359.025 7.1108C358.525 7.16411 358.826 7.00847 358.936 7.28002C359.027 7.51606 359.138 7.47844 359.245 7.73119C359.458 8.23668 359.49 8.90722 359.411 9.53807C359.172 11.2572 358.335 12.9106 357.278 14.5035C357.131 14.7208 356.984 14.938 356.836 15.1459C356.751 15.266 356.666 15.3861 356.582 15.5062C356.604 15.4832 356.861 15.1417 356.666 15.3861C356.333 15.8175 355.986 16.2509 355.64 16.6844C354.936 17.5628 354.218 18.4339 353.541 19.3176C350.994 22.6422 348.952 26.0964 347.187 29.6497C345.677 32.6108 351.545 34.0882 353.038 31.101Z" fill="#27B16B"/>
<path d="M96.1335 318.584C83.5193 288.74 72.2086 258.48 60.1837 228.435C51.227 206.054 40.8396 184.366 28.0532 163.633C18.2247 147.677 7.44179 132.249 -3.60458 117.028C-6.12374 113.551 -3.89149 107.956 -0.20336 106.385C4.2846 104.474 8.33213 106.266 11.0261 109.987C28.6287 134.249 45.6265 159.085 58.9868 185.686C70.1971 208.025 78.7422 231.41 87.728 254.57C95.1336 273.656 102.939 292.606 110.76 311.559C113.822 318.991 111.379 319.096 106.49 319.947C100.377 320.988 97.898 322.741 96.1335 318.584Z" fill="#27B16B" stroke="#27B16B" stroke-miterlimit="10"/>
<path d="M82.697 282.838C75.379 286.209 67.8272 289.616 60.1426 289.966C52.458 290.317 44.5145 286.872 41.8251 279.591C41.3851 278.42 41.1034 277.113 41.405 275.816C41.7822 274.18 43.046 272.834 44.387 271.837C51.0921 266.854 59.6482 268.875 66.7426 271.448C72.1085 273.403 77.4041 275.552 82.5933 277.902" fill="#27B16B"/>
<path d="M80.5921 279.359C71.8761 283.367 59.7923 289.543 50.2251 283.702C48.4365 282.607 46.9899 281.08 46.0975 279.229C45.047 277.072 45.5002 275.915 47.4918 274.62C51.3495 272.11 56.2107 272.5 60.5782 273.625C67.4265 275.393 74.0827 278.372 80.5224 281.26C82.5661 282.178 84.9869 281.903 86.196 279.935C87.2255 278.246 86.7245 275.402 84.6689 274.464C77.4158 271.207 69.8629 267.72 62.1143 265.838C55.5984 264.242 48.3961 264.215 42.7966 267.99C39.4402 270.242 36.8068 273.513 37.2191 277.695C37.5577 281.135 39.4424 284.472 41.8409 287.062C46.3234 291.878 53.4328 294.144 59.9412 293.932C68.8484 293.652 76.9989 289.884 84.8099 286.285C86.802 285.368 87.3618 282.681 86.2839 280.878C85.0746 278.923 82.6045 278.431 80.5921 279.359Z" fill="#27B16B"/>
<path d="M50.2859 198.249C44.1382 200.807 34.4119 203.522 27.771 203.271C21.1301 203.02 14.0227 199.228 11.2535 192.303C10.8171 191.183 10.4783 189.958 10.6622 188.777C10.8931 187.298 11.8975 186.144 13.0036 185.313C18.5176 181.219 26.0633 183.719 32.374 186.638C37.1541 188.843 41.8682 191.228 46.5163 193.791" fill="#27B16B"/>
<path d="M48.1809 194.77C42.5303 197.086 36.111 198.996 29.8916 199.287C24.6183 199.523 19.0871 197.605 16.1637 193.018C15.6441 192.203 14.4371 190.43 14.7482 189.415C14.9891 188.595 16.2623 187.973 17.0015 187.666C19.2511 186.753 21.8348 187.146 24.1509 187.76C31.2757 189.653 38.0429 193.681 44.4166 197.19C49.0967 199.763 53.2391 192.981 48.5589 190.409C41.973 186.792 35.1112 182.985 27.9222 180.632C21.7001 178.591 14.2777 178.423 9.36257 183.04C3.65585 188.41 7.63435 196.847 12.8519 201.371C17.6544 205.519 23.9569 207.582 30.3136 207.23C37.9507 206.801 45.435 204.59 52.3861 201.742C54.4258 200.903 54.9024 198.079 53.8602 196.335C52.6116 194.271 50.2206 193.931 48.1809 194.77Z" fill="#27B16B"/>
<path d="M66.2083 240.696C60.0607 243.254 53.7316 245.845 47.0906 245.594C40.4497 245.343 33.3423 241.551 30.5731 234.626C30.1368 233.506 29.798 232.281 29.9818 231.1C30.2127 229.62 31.2172 228.466 32.3233 227.636C37.8372 223.542 45.383 226.042 51.6936 228.96C56.4738 231.166 61.1879 233.55 65.8359 236.114" fill="#27B16B"/>
<path d="M64.1194 237.222C59.5309 239.122 54.6101 241.293 49.5092 241.593C45.443 241.83 41.6118 241.015 38.4396 238.542C36.8336 237.284 35.5481 235.736 34.7117 233.932C33.9263 232.257 33.8782 231.358 35.4922 230.436C38.7242 228.576 42.7701 229.679 46.4995 231.057C52.2983 233.195 58.2313 236.486 63.7683 239.522C68.4485 242.094 72.5909 235.313 67.9107 232.741C61.609 229.284 55.1146 225.774 48.3288 223.333C42.7382 221.317 35.998 220.481 30.8618 223.758C27.7331 225.744 25.4601 228.768 25.8718 232.573C26.2313 235.937 28.0333 239.07 30.2303 241.704C34.0873 246.284 39.99 248.927 45.9519 249.518C53.8272 250.302 61.3569 247.103 68.3365 244.214C70.3762 243.375 70.8688 240.555 69.8106 238.806C68.562 236.742 66.143 236.378 64.1194 237.222Z" fill="#27B16B"/>
<path d="M27.3758 159.92C21.2282 162.478 12.2725 165.404 5.63157 165.152C-1.00938 164.901 -8.11677 161.109 -10.8859 154.184C-11.3223 153.064 -11.6611 151.839 -11.4772 150.659C-11.2464 149.179 -10.2419 148.025 -9.1358 147.194C-3.62187 143.101 3.92394 145.601 10.2185 148.514C14.9987 150.72 19.7127 153.105 24.3608 155.668" fill="#27B16B"/>
<path d="M25.2716 156.441C20.5499 158.387 15.5696 160.017 10.464 160.84C6.24074 161.527 2.16744 161.221 -1.53459 159.047C-3.25955 158.035 -4.7722 156.687 -5.84358 155.05C-6.73244 153.691 -8.1742 151.641 -6.62563 150.389C-3.52432 147.87 1.19522 149.222 4.66841 150.464C10.7805 152.655 16.6249 155.955 22.282 159.056C26.9622 161.629 31.1046 154.847 26.4244 152.275C19.9586 148.724 13.2365 145.037 6.1968 142.642C0.0275909 140.534 -6.89878 140.254 -12.0946 144.319C-18.4292 149.272 -15.0417 157.663 -10.0567 162.533C-5.58604 166.887 0.834062 169.277 7.10042 169.13C14.8802 168.937 22.449 166.29 29.4649 163.394C31.5046 162.555 31.9812 159.731 30.939 157.986C29.7184 155.947 27.3154 155.587 25.2716 156.441Z" fill="#27B16B"/>
<path d="M2.9522 124.362C-1.17181 126.077 -7.56564 128.716 -12.0064 128.556C-16.4632 128.391 -21.2202 125.847 -23.0768 121.206C-23.3716 120.453 -23.5975 119.636 -23.4696 118.85C-23.3196 117.857 -22.6405 117.074 -21.9072 116.536C-18.2125 113.801 -13.1659 115.472 -8.9346 117.413C-5.73319 118.893 -2.58115 120.491 0.537583 122.21" fill="#27B16B"/>
<path d="M0.863173 120.888C0.200714 121.167 -0.461741 121.446 -1.13609 121.705C-1.56009 121.868 -1.98826 122.047 -2.41225 122.211C-2.83625 122.374 -2.46876 122.228 -2.37599 122.204C-2.62635 122.3 -2.89275 122.391 -3.1431 122.487C-4.7701 123.078 -6.42086 123.629 -8.12277 124.051C-8.9535 124.251 -9.79197 124.417 -10.6382 124.547C-9.97334 124.449 -10.7952 124.553 -11.0408 124.569C-11.4433 124.59 -11.8418 124.596 -12.2479 124.568C-12.4168 124.555 -13.4015 124.434 -12.9234 124.515C-12.4453 124.596 -13.4413 124.39 -13.6018 124.346C-14.0234 124.248 -14.4165 124.108 -14.8137 123.983C-14.8779 123.966 -15.4553 123.743 -14.9743 123.939C-14.5093 124.132 -15.2186 123.824 -15.2947 123.786C-15.6313 123.629 -15.9435 123.446 -16.2557 123.262C-16.4037 123.172 -17.1874 122.631 -16.8877 122.86C-16.588 123.089 -17.3307 122.46 -17.4544 122.344C-17.7695 122.045 -18.0804 121.731 -18.351 121.394C-17.8813 121.949 -18.5727 121.006 -18.6958 120.824C-18.8028 120.648 -19.1982 119.883 -19.0995 120.091C-18.9378 120.447 -19.4294 119.213 -19.3159 119.556C-19.2261 119.859 -19.3622 119.346 -19.3254 119.274C-19.3295 119.29 -19.3861 119.75 -19.4021 119.746C-19.4265 119.772 -19.4509 119.798 -19.4753 119.824C-19.5972 119.955 -19.5728 119.929 -19.3903 119.765C-19.4057 119.695 -19.1387 119.539 -19.4586 119.763C-19.175 119.545 -18.8437 119.406 -18.5202 119.231C-19.1631 119.565 -18.2824 119.181 -18.0041 119.109C-17.8388 119.072 -17.6574 119.04 -17.4921 119.003C-17.875 119.079 -17.9107 119.02 -17.5004 119.033C-17.1383 119.033 -16.7803 119.049 -16.4181 119.049C-15.6136 119.072 -16.8677 118.927 -16.0644 119.08C-15.261 119.233 -14.4541 119.437 -13.6799 119.697C-13.1905 119.863 -12.7053 120.045 -12.2159 120.211C-11.7468 120.388 -12.276 120.178 -12.3521 120.141C-12.1196 120.237 -11.8871 120.334 -11.6427 120.449C-10.6128 120.911 -9.57526 121.407 -8.55372 121.899C-6.16218 123.059 -3.80331 124.277 -1.4772 125.551C0.428531 126.595 3.14072 126.137 4.1964 124.225C5.21936 122.371 4.70703 119.884 2.6693 118.754C-1.92288 116.239 -6.74279 113.547 -11.7662 111.98C-16.4084 110.534 -21.8738 110.653 -25.3902 114.126C-29.7024 118.366 -26.7732 124.957 -22.5718 128.4C-19.0173 131.306 -14.3603 132.887 -9.75648 132.386C-4.49622 131.817 0.350902 129.791 5.12132 127.792C7.16103 126.953 7.65367 124.134 6.59538 122.385C5.30996 120.393 2.90704 120.034 0.863173 120.888Z" fill="#27B16B"/>
<path d="M93.6619 273.617C99.0908 269.582 106.213 263.892 109.806 257.798C113.394 251.72 114.579 243.197 110.916 236.766C110.334 235.738 109.591 234.731 108.59 234.228C107.332 233.59 105.885 233.836 104.641 234.35C98.4126 236.952 95.9999 245.107 94.6089 252.425C93.5522 257.947 92.6681 263.532 91.9647 269.15" fill="#27B16B"/>
<path d="M96.6012 276.502C107.232 268.568 118.253 258.509 117.237 244.266C116.777 237.855 113.069 228.048 104.494 230.207C97.9768 231.844 94.4386 238.117 92.5073 243.811C89.8853 251.532 89.0068 260.006 87.963 268.075C87.694 270.201 88.5596 272.341 90.9357 272.988C92.8784 273.518 95.7173 272.404 95.9904 270.263C96.7885 263.982 97.7114 257.686 99.0518 251.503C99.9554 247.302 101.102 242.527 104.338 239.388C104.922 238.825 105.566 238.361 106.346 238.032C106.794 237.842 107.284 238.008 106.755 237.733C106.575 237.634 107.175 238.405 107.349 238.715C108.483 240.633 108.933 242.905 109.001 245.057C109.148 249.709 107.546 254.13 104.82 257.867C101.124 262.948 95.7833 266.974 90.735 270.751C88.9848 272.046 89.2842 274.934 90.7558 276.369C92.4665 278.066 94.851 277.797 96.6012 276.502Z" fill="#27B16B"/>
<path d="M56.7463 192.263C61.6074 187.401 66.5868 182.358 69.4121 175.727C72.2373 169.096 72.4016 160.393 68.0696 154.519C67.3782 153.575 66.5333 152.689 65.4903 152.339C64.1827 151.884 62.7984 152.343 61.6369 153.061C55.8222 156.612 54.412 165.139 53.8963 172.663C53.5021 178.349 53.2887 184.067 53.2281 189.795" fill="#27B16B"/>
<path d="M59.6731 195.129C64.6763 190.125 69.742 184.892 72.7063 178.446C75.3549 172.653 76.3235 166.189 74.8845 159.888C73.4146 153.448 68.0428 145.567 60.3002 149.168C54.3154 151.951 51.7132 158.84 50.6571 164.739C49.1899 172.906 49.1558 181.447 49.0676 189.744C49.0207 194.851 57.3088 194.944 57.3599 189.821C57.4355 182.457 57.3649 174.806 58.5704 167.536C59.0684 164.57 59.7602 161.526 61.3892 158.967C62.0464 157.948 62.8968 157.359 63.7133 156.515C64.0993 156.111 64.7659 156.26 63.9958 155.985C64.4049 156.129 64.7409 156.795 64.943 157.129C68.0145 161.807 67.7261 167.8 66.0546 172.793C63.8455 179.379 58.6317 184.522 53.7707 189.384C50.1561 193.027 56.0383 198.783 59.6731 195.129Z" fill="#27B16B"/>
<path d="M76.8763 233.511C81.7374 228.649 86.7169 223.606 89.5421 216.974C92.3673 210.343 92.5317 201.64 88.1997 195.766C87.5082 194.823 86.6633 193.936 85.6203 193.586C84.3127 193.131 82.9283 193.591 81.7669 194.308C75.9522 197.86 74.542 206.387 74.0263 213.91C73.6321 219.596 73.4187 225.314 73.3581 231.042" fill="#27B16B"/>
<path d="M79.8198 236.381C84.823 231.377 89.8886 226.144 92.853 219.698C95.5015 213.905 96.4702 207.44 95.0312 201.14C93.5613 194.7 88.1895 186.819 80.4469 190.42C74.4621 193.203 71.8599 200.092 70.8038 205.991C69.3366 214.158 69.3025 222.699 69.2142 230.995C69.1674 236.103 77.4555 236.196 77.5065 231.073C77.5822 223.709 77.5116 216.058 78.717 208.788C79.215 205.822 79.9069 202.778 81.5359 200.219C82.1931 199.2 83.0434 198.611 83.86 197.767C84.2459 197.363 84.9125 197.512 84.1425 197.237C84.5516 197.381 84.8875 198.047 85.0896 198.381C88.1611 203.058 87.8727 209.052 86.2013 214.045C83.9921 220.631 78.7784 225.774 73.9173 230.636C70.2985 234.294 76.1689 240.03 79.8198 236.381Z" fill="#27B16B"/>
<path d="M35.0699 151.941C39.931 147.079 44.9105 142.035 47.7357 135.404C50.5609 128.773 50.7253 120.07 46.3933 114.196C45.7018 113.252 44.8569 112.366 43.8139 112.016C42.5064 111.561 41.122 112.021 39.9606 112.738C34.1458 116.29 32.7357 124.817 32.22 132.34C31.8257 138.026 31.6123 143.744 31.5517 149.472" fill="#27B16B"/>
<path d="M38.0136 154.811C43.0168 149.807 48.0825 144.574 51.0468 138.128C53.6953 132.335 54.664 125.87 53.225 119.57C51.7551 113.13 46.3833 105.249 38.6407 108.85C32.6559 111.633 30.0537 118.522 28.9976 124.421C27.5304 132.588 27.4963 141.129 27.4081 149.425C27.3612 154.533 35.6493 154.626 35.7004 149.503C35.776 142.138 35.7054 134.488 36.9108 127.218C37.4089 124.252 38.1007 121.208 39.7297 118.649C40.3869 117.63 41.2373 117.041 42.0538 116.197C42.4397 115.793 43.1064 115.942 42.3363 115.667C42.7454 115.811 43.0813 116.477 43.2834 116.811C46.3549 121.488 46.0666 127.482 44.3951 132.475C42.186 139.061 36.9722 144.204 32.1111 149.066C28.4924 152.724 34.3627 158.46 38.0136 154.811Z" fill="#27B16B"/>
<path d="M9.80978 112.807C13.0628 109.542 16.4133 106.171 18.297 101.729C20.1807 97.286 20.3026 91.4604 17.3934 87.5164C16.9284 86.8809 16.3665 86.2847 15.6726 86.0463C14.8062 85.7445 13.8619 86.0451 13.093 86.5247C9.20024 88.91 8.24643 94.6237 7.90639 99.6678C7.642 103.485 7.4942 107.318 7.46706 111.151" fill="#27B16B"/>
<path d="M12.7528 115.677C16.2413 112.18 19.7715 108.531 21.7925 104.027C23.6904 99.7854 24.3896 95.069 23.2126 90.4649C22.6378 88.2076 21.5034 85.9782 19.8779 84.2222C17.6345 81.8219 14.1779 81.4049 11.3318 82.861C7.115 85.0431 5.15639 89.7608 4.4085 94.0865C3.42382 99.6605 3.36259 105.453 3.32279 111.104C3.30712 113.25 5.33822 115.1 7.53899 115.126C9.82836 115.142 11.5952 113.343 11.6311 111.186C11.6552 108.567 11.7274 105.961 11.8519 103.353C11.9127 101.991 11.9896 100.633 12.0985 99.2843C12.1479 98.7234 12.2015 98.1472 12.255 97.571C12.3473 96.7263 12.2098 97.6735 12.3497 96.9075C12.5531 95.7814 12.7524 94.6705 13.0844 93.5793C13.1218 93.4419 13.6382 91.9907 13.3747 92.641C13.5269 92.2722 13.7071 91.9274 13.9034 91.5871C13.9771 91.4431 14.849 90.2694 14.3489 90.8387C14.6742 90.4679 15.0358 90.0905 15.4366 89.8223C15.1125 90.0622 15.1487 90.0556 15.5614 89.8071C15.3836 89.8899 15.2022 89.9225 15.0013 89.9006C14.5951 89.8719 14.214 89.7516 13.8941 89.5331C13.815 89.3803 13.8429 89.4043 13.9619 89.6008C14.1313 89.9917 14.4696 90.3957 14.6913 90.7844C14.9006 91.2189 14.9244 91.2582 14.7746 90.9219C14.881 91.1643 14.9672 91.4175 15.0374 91.6664C15.2098 92.1729 15.3257 92.6969 15.4255 93.2164C15.3025 92.5921 15.4962 93.8429 15.4908 93.9891C15.6434 96.2134 15.506 97.1606 14.7898 99.3451C13.5193 103.184 10.0825 106.743 6.89847 109.946C5.37544 111.483 5.30026 113.974 6.91931 115.564C8.44264 117.062 11.2137 117.21 12.7528 115.677Z" fill="#27B16B"/>
<path d="M0.080696 112.814C-8.90035 102.291 -12.6625 100.971 -17.0178 96.7637C-21.3732 92.5568 -24.0569 87.2794 -22.0146 83.963C-21.6958 83.4263 -21.2206 82.9486 -20.4345 82.7854C-19.4509 82.594 -18.1184 82.9572 -16.9077 83.4513C-10.8789 85.9481 -7.17301 91.2087 -4.54752 95.8139C-2.56353 99.2923 -0.700289 102.771 0.98994 106.251" fill="#27B16B"/>
<path d="M2.99833 110.081C-0.011409 106.569 -3.18706 103.159 -6.74451 100.138C-8.83273 98.3711 -11.0833 96.7566 -13.1227 94.937C-14.7311 93.4975 -16.0065 92.1652 -17.0457 90.5362C-17.8234 89.3395 -18.0131 88.9596 -18.318 87.9903C-18.3924 87.7567 -18.4464 87.5122 -18.5047 87.2829C-18.6723 86.6957 -18.4857 87.8461 -18.5166 87.2633C-18.5267 87.0472 -18.5326 86.8158 -18.5427 86.5997C-18.5581 86.0868 -18.4088 86.0454 -18.5623 86.5451C-18.5123 86.3618 -18.4338 86.137 -18.3999 85.9494C-18.5724 86.7721 -18.6241 86.2657 -18.4171 86.0759C-18.5105 86.1654 -19.6493 87.053 -19.7831 86.7211C-19.7908 86.6862 -18.07 87.2701 -18.535 87.0777C-17.8214 87.3707 -17.1329 87.7553 -16.4646 88.1508C-15.248 88.8763 -15.0084 89.0729 -14.0666 89.9205C-13.0849 90.8117 -12.1882 91.7618 -11.3606 92.7751C-11.4759 92.6288 -11.6983 92.3056 -11.2215 92.9607C-11.0068 93.249 -10.8083 93.5329 -10.5936 93.8211C-10.2321 94.33 -9.89085 94.8497 -9.54958 95.3694C-8.79985 96.542 -8.11076 97.7473 -7.43774 98.9483C-5.73142 101.99 -4.106 105.075 -2.56143 108.204C-1.59354 110.158 1.30233 110.734 3.12203 109.753C5.18436 108.642 5.5598 106.315 4.59608 104.346C1.76793 98.5856 -1.1393 92.6728 -5.24124 87.5996C-7.12306 85.265 -9.34145 83.2161 -11.9298 81.5752C-15.0021 79.6218 -19.451 77.7198 -22.9596 79.4549C-25.8497 80.8826 -27.0845 84.337 -26.7982 87.3363C-26.5 90.3552 -25.126 93.2242 -23.2775 95.681C-20.8166 98.9284 -17.8454 101.379 -14.6578 103.922C-10.2798 107.413 -6.44117 111.364 -2.82616 115.566C-1.38491 117.239 1.55802 117.073 3.03941 115.688C4.71586 114.094 4.45563 111.758 2.99833 110.081Z" fill="#27B16B"/>
<path d="M153.086 193.36C77.3453 202.67 23.47 268.999 6.00002 301H476V56.6291C419.194 36.8467 343.002 85.236 312.007 111.903C290.592 135.177 228.827 184.051 153.086 193.36Z" fill="#3D87CB" stroke="#3D87CB"/>
<path d="M-6.09667 377.068C-14.7435 351.265 -2.06421 314.683 5.72395 299H392V377.068L-4.59688 380.583C0.249022 391.948 5.36045 404.007 -4.7537 380.584C-5.24895 379.437 -5.69573 378.264 -6.09667 377.068Z" fill="#3D87CB"/>
<path d="M-4.7537 380.584C-5.24895 379.437 -5.69573 378.264 -6.09667 377.068M-4.7537 380.584C6.42246 406.466 -0.992279 389.024 -6.09667 377.068M-4.7537 380.584L392 377.068V299H5.72395C-2.06421 314.683 -14.7435 351.265 -6.09667 377.068" stroke="#3D87CB"/>
</svg>
